<?xml version="1.0" encoding="utf-8" ?><svg xmlns="http://www.w3.org/2000/svg" xmlns:xlink="http://www.w3.org/1999/xlink" width="1024" height="1024" viewBox="0 0 1024 1024"><defs><linearGradient id="gradient_0" gradientUnits="userSpaceOnUse" x1="735.69849" y1="538.67157" x2="315.60876" y2="770.79456"><stop offset="0" stop-color="#3F48D1"/><stop offset="1" stop-color="#9D76F6"/></linearGradient></defs><path fill="url(#gradient_0)" d="M685.535 496.609C706.48 494.942 726.288 507.459 728.839 529.175C729.946 539.08 727.061 549.019 720.821 556.791C712.924 566.662 702.565 570.007 690.47 571.339C686.899 578.52 685.437 582.719 683.182 590.272C643.367 591.966 614.585 605.308 585.66 631.944C587.642 637.503 589.015 642.643 588.881 648.595C588.594 658.321 584.42 667.527 577.293 674.152C566.96 683.819 556.343 684.882 543.029 684.509C529.712 718.058 522.503 745.599 524.325 781.563C524.603 787.05 523.278 790.915 519.214 794.7C512.403 796.323 501.48 796.125 494.258 796.207C479.742 796.388 465.225 796.357 450.71 796.114C430.315 795.952 409.736 796.162 389.474 796.539C362.123 797.049 336.859 789.354 317.399 769.37C290.741 741.994 293.328 716.783 293.355 682.25C293.297 674.005 291.202 649.528 299.043 644.827C312.471 636.775 324.442 642.134 325.246 658.719C326.114 676.634 322.956 696.436 325.595 713.853C327.2 724.954 331.89 735.381 339.129 743.949C346.747 752.938 356.892 759.43 368.246 762.581C381.824 766.299 399.324 765.046 413.326 764.997L468.03 764.927C479.005 764.923 492.254 764.57 502.981 765.47C502.8 735.502 510.799 701.179 523.859 674.237C518.314 668.76 514.415 664.123 512.183 656.496C504.196 629.2 529.776 603.758 556.991 609.454C563.08 610.729 567.179 612.709 572.564 615.736C595.104 591.184 635.345 573.552 668.458 571.068L670.688 565.115C662.055 559.093 655.924 552.225 653.649 541.636C651.578 531.936 653.528 521.812 659.054 513.575C665.702 503.564 674.049 498.949 685.535 496.609ZM553.75 665.618C564.263 663.475 571.016 653.176 568.791 642.68C566.565 632.184 556.214 625.512 545.735 627.82C535.373 630.102 528.79 640.315 530.991 650.695C533.192 661.076 543.353 667.738 553.75 665.618ZM693.73 551.332C703.54 549.869 710.304 540.728 708.835 530.919C707.367 521.109 698.221 514.35 688.413 515.825C678.613 517.298 671.86 526.434 673.328 536.235C674.795 546.037 683.928 552.795 693.73 551.332Z"/><path fill="#4B6DF0" d="M503.027 219.668C517.178 217.95 530.389 223.799 540.346 233.658C554.121 247.299 553.229 260.482 553.122 278.563L581.321 278.346C608.805 278.164 614.274 279.033 613.979 308.381C613.8 326.14 611.528 339.184 598.56 352.316C581.105 369.991 562.864 370.479 539.355 370.632L508.375 370.792C477.795 370.998 438.745 376.57 415.721 354.032C401.481 340.093 398.985 327.734 397.877 308.842C395.965 276.26 405.2 278.31 432.571 278.386L459.996 278.439C459.757 262.996 459.718 250.244 469.692 237.454C478.728 225.866 488.838 221.529 503.027 219.668ZM484.873 303.892L423.952 303.883C423.701 310.698 423.538 315.914 425.812 322.476C431.324 338.383 445.812 345.98 461.979 345.987C478.7 345.995 495.281 345.981 511.924 345.933L537.934 345.974C553.476 345.982 567.857 347.142 579.793 335.117C589.148 325.692 589.948 315.989 589.973 303.511C569.895 303.579 547.899 303.175 527.945 303.723C527.872 289.992 528.859 273.534 526.99 260.014C525.515 249.34 513.648 242.306 502.828 244.115C491.173 247.823 485.436 253.817 484.928 266.44C484.424 278.951 484.639 291.377 484.873 303.892Z"/><path fill="#4B6DF0" d="M364.625 292.635C386.128 290.166 387.327 313.008 374.586 317.394C337.873 330.033 326.215 347.29 326.058 386.314L325.779 541.157L325.64 583.233C325.666 592.006 325.88 600.828 325.566 609.594C325.195 619.941 321.399 624.108 311.633 626.515C307.141 626.802 303.948 625.962 299.991 623.82C293.687 620.457 293.279 614.456 293.276 608.037C293.271 599.288 293.398 590.524 293.461 581.772L293.884 513.399L294.26 415.766C294.308 402.218 293.641 375.702 295.127 363.624C296.671 351.463 301.015 339.825 307.817 329.627C321.427 309.129 340.82 297.502 364.625 292.635Z"/><path fill="#4B6DF0" d="M576.195 416.186C582.659 412.806 590.417 408.448 597.013 405.609C626.704 392.829 653.614 388.472 685.552 390.17C685.486 396.534 685.25 403.752 685.404 410.048C675.407 410.002 664.421 409.738 654.553 410.556C630.179 412.753 606.747 421.031 586.402 434.632C587.649 446.829 586.655 456.175 578.563 466.009C571.603 474.429 561.53 479.671 550.64 480.542C546.777 480.863 543.408 480.668 539.566 480.371C534.578 488.187 529.933 495.539 526.08 504.052C523.338 510.112 521.461 517.058 518.2 522.789C515.416 527.68 508.174 526.66 503.493 526.874C497.779 527.011 491.957 526.957 486.201 527.045C472.141 527.172 458.135 528.812 444.426 531.937C447.179 524.982 447.732 517.349 446.012 510.069C463.339 508.699 486.6 506.335 503.481 507.423C505.974 496.738 514.714 481.265 520.867 472.025C512.291 463.851 507.231 456.239 506.882 443.935C506.547 433.46 510.482 423.298 517.785 415.78C525.14 408.181 535.268 403.897 545.843 403.91C557.4 403.895 567.849 408.219 576.195 416.186ZM550.757 461.463C561.165 459.321 567.874 449.159 565.757 438.747C563.64 428.334 553.494 421.6 543.077 423.692C532.624 425.791 525.861 435.979 527.986 446.427C530.11 456.875 540.314 463.613 550.757 461.463Z"/><path fill="#BEC5F8" d="M447.346 652.91C451.803 662.76 450.28 675.519 445.202 684.84C440.555 693.475 432.59 699.843 423.144 702.475C413.276 705.229 402.718 703.933 393.809 698.873C385.125 693.991 378.769 685.822 376.172 676.204C373.679 666.788 375.029 656.768 379.925 648.347C390.335 630.425 413.328 624.546 431.186 634.831C439.86 642.186 442.311 641.803 447.346 652.91ZM416.656 684.734C426.633 682.385 432.803 672.376 430.418 662.408C428.034 652.439 418.003 646.306 408.043 648.726C398.133 651.134 392.037 661.103 394.41 671.021C396.782 680.94 406.729 687.071 416.656 684.734Z"/><path fill="#BEC5F8" d="M444.426 531.937C437.781 548.724 419.879 558.149 402.279 554.127C384.679 550.105 372.648 533.84 373.954 515.833C375.261 497.826 389.513 483.468 407.51 482.028C425.506 480.589 441.86 492.499 446.012 510.069C447.732 517.349 447.179 524.982 444.426 531.937ZM413.761 535.473C423.276 533.692 429.517 524.499 427.661 514.998C425.805 505.498 416.563 499.33 407.078 501.26C397.697 503.17 391.612 512.287 393.447 521.682C395.283 531.078 404.352 537.234 413.761 535.473Z"/><path fill="#4B6DF0" d="M406.129 384.689C425.969 382.449 443.897 396.643 446.269 416.467C448.641 436.292 434.566 454.314 414.758 456.817C394.763 459.344 376.534 445.108 374.139 425.097C371.745 405.085 386.102 386.951 406.129 384.689ZM412.734 438.046C418.892 437.182 424.111 433.074 426.398 427.292C428.685 421.509 427.687 414.943 423.786 410.1C419.884 405.257 413.681 402.885 407.544 403.889C398.204 405.417 391.832 414.176 393.253 423.533C394.675 432.89 403.361 439.361 412.734 438.046Z"/><defs><linearGradient id="gradient_1" gradientUnits="userSpaceOnUse" x1="722.35425" y1="712.28064" x2="611.50031" y2="763.25262"><stop offset="0" stop-color="#4346CE"/><stop offset="1" stop-color="#785DE5"/></linearGradient></defs><path fill="url(#gradient_1)" d="M696.306 678.069C715.211 676.699 712.533 691.203 713.108 704.119C714.733 740.638 694.314 774.31 660.139 788.019C651.833 791.351 644.887 792.75 636.17 794.014C624.145 794.312 616.123 785.714 621.569 773.776C625.093 766.051 634.545 767.163 641.787 764.904C664.822 757.721 682.371 737.172 684.193 712.871C684.916 703.936 682.578 692.513 686.809 684.12C688.657 680.453 692.625 679.136 696.306 678.069Z"/><path fill="#4B6DF0" d="M681.334 625.054L682.435 625.084C684.11 626.893 685.191 641.213 685.554 644.726C669.49 649.119 654.426 656.574 641.19 666.681C613.376 688.313 603.233 715.354 598.977 748.996C592.751 748.597 586.61 748.674 580.375 748.68L575.778 748.815C575.883 731.226 586.357 701.976 595.682 686.8C616.388 653.102 643.668 634.641 681.334 625.054Z"/><path fill="#4B6DF0" d="M681.519 450.689C682.651 450.525 683.117 450.577 684.283 450.58C685.872 452.268 685.629 467.362 685.692 470.971C639.479 473.515 600.555 496.225 582.475 539.887C578.762 538.451 574.877 537.104 571.123 535.746L562.766 532.844C566.882 521.818 572.757 511.532 580.164 502.386C606.541 469.428 640.761 455.163 681.519 450.689Z"/><path fill="#4B6DF0" d="M640.06 292.584C668.001 290.148 702.4 318.946 711.46 344.122C715.509 355.373 719.838 365.87 705.663 371.693C689.427 374.446 688.45 361.112 683.081 349.974C680.941 345.535 677.207 340.099 673.646 336.674C668.852 332.141 663.447 328.301 657.588 325.267C648.705 320.764 626.563 317.335 631.223 302.383C632.714 297.597 635.85 295.013 640.06 292.584Z"/><path fill="#4B6DF0" d="M431.186 634.831C445.729 608.756 464.356 587.368 491.177 573.182C500.569 568.615 515.169 559.324 525.717 563.565C530.477 565.479 532.113 573.187 529.149 577.14C523.879 584.171 511.678 585.463 503.997 589.584C478.909 603.048 457.366 626.159 447.346 652.91C442.311 641.803 439.86 642.186 431.186 634.831Z"/><path fill="#9775F4" d="M582.644 768.561C589.456 767.917 595.838 770.242 598.495 777.014C599.649 779.871 599.588 783.075 598.327 785.886C596.378 790.276 592.821 792.131 588.637 793.688C582.453 794.461 575.311 792.335 572.544 786.288C571.268 783.514 571.176 780.34 572.29 777.497C574.219 772.45 578.096 770.502 582.644 768.561Z"/><path fill="#4B6DF0" d="M561.442 549.803C568.535 549.465 574.566 554.928 574.927 562.02C575.288 569.113 569.844 575.161 562.753 575.545C555.63 575.93 549.548 570.456 549.185 563.332C548.823 556.207 554.316 550.143 561.442 549.803ZM562.714 565.012C563.488 564.668 564.01 563.925 564.07 563.08C564.13 562.235 563.719 561.425 563.001 560.976C562.283 560.526 561.375 560.509 560.641 560.932C559.585 561.54 559.19 562.869 559.742 563.955C560.294 565.042 561.6 565.506 562.714 565.012Z"/><path fill="#4B6DF0" d="M715.562 388.713C722.477 388.127 728.592 393.176 729.324 400.078C730.056 406.979 725.136 413.199 718.251 414.076C713.667 414.659 709.126 412.718 706.381 409.001C703.635 405.285 703.114 400.374 705.019 396.164C706.924 391.954 710.958 389.104 715.562 388.713Z"/><path fill="#4B6DF0" d="M714.426 620.746C721.362 619.979 727.609 624.972 728.39 631.907C729.171 638.841 724.19 645.098 717.257 645.892C710.305 646.689 704.027 641.691 703.244 634.737C702.461 627.784 707.471 621.515 714.426 620.746Z"/><path fill="#4B6DF0" d="M715.532 448.118C721.456 448.476 727.038 450.27 729.062 456.511C730.036 459.567 729.725 462.888 728.2 465.71C725.773 470.186 722.489 471.406 718.006 472.627C711.609 472.133 705.592 469.37 703.839 462.669C703.07 459.786 703.545 456.713 705.149 454.197C707.634 450.353 711.252 448.952 715.532 448.118Z"/></svg>